<?xml version="1.0" standalone="no"?>
<!DOCTYPE svg PUBLIC "-//W3C//DTD SVG 20010904//EN"
 "http://www.w3.org/TR/2001/REC-SVG-20010904/DTD/svg10.dtd">
<svg version="1.0" xmlns="http://www.w3.org/2000/svg"
 width="512.000000pt" height="512.000000pt" viewBox="0 0 512.000000 512.000000"
 preserveAspectRatio="xMidYMid meet">

<g transform="translate(0.000000,512.000000) scale(0.100000,-0.100000)"
fill="#000000" stroke="none">
<path d="M2245 5015 c-458 -60 -885 -243 -1240 -531 -98 -79 -285 -264 -363
-359 -291 -355 -479 -797 -538 -1265 -18 -147 -18 -453 0 -600 30 -241 91
-464 188 -690 238 -557 721 -1039 1280 -1279 325 -140 627 -201 988 -201 293
0 507 34 777 122 225 74 550 238 603 305 14 18 20 41 20 75 0 43 -4 54 -34 84
-29 29 -41 34 -81 34 -39 0 -60 -8 -113 -41 -257 -163 -589 -279 -912 -319
-142 -17 -427 -13 -578 10 -805 118 -1483 665 -1767 1424 -155 415 -179 908
-66 1339 200 766 800 1372 1566 1582 219 60 381 78 640 72 232 -5 338 -19 532
-72 423 -114 832 -376 1114 -714 268 -320 439 -702 499 -1113 23 -151 27 -436
10 -578 -40 -323 -156 -655 -319 -912 -33 -53 -41 -74 -41 -113 0 -40 5 -52
34 -81 29 -29 41 -34 83 -34 29 0 58 7 72 16 61 43 233 375 304 590 89 269
127 503 127 792 0 363 -61 664 -201 990 -211 493 -596 913 -1086 1187 -181
101 -461 204 -681 250 -215 45 -595 59 -817 30z"/>
<path d="M1990 3739 c-44 -18 -90 -59 -113 -102 l-22 -42 0 -1035 0 -1035 25
-45 c37 -66 96 -103 173 -108 41 -3 75 1 97 11 19 8 301 188 625 400 1013 662
942 613 972 664 40 68 43 138 9 207 -15 30 -41 65 -59 78 -61 46 -1482 972
-1526 995 -48 25 -134 30 -181 12z m982 -830 c290 -189 528 -346 528 -349 0
-3 -238 -160 -528 -349 -290 -190 -605 -396 -699 -458 l-173 -113 0 920 0 920
173 -113 c94 -62 409 -268 699 -458z"/>
<path d="M4192 1023 c-31 -6 -88 -65 -94 -98 -18 -90 63 -170 150 -150 40 8
92 64 98 107 14 84 -66 157 -154 141z"/>
</g>
</svg>
